<svg width="40" height="40" viewBox="0 0 40 40" fill="none" xmlns="http://www.w3.org/2000/svg">
<g id="arrow 1" clip-path="url(#clip0_25_185)">
<g id="Group">
<g id="Group_2">
<path id="Vector" d="M2.40422 22.8078C2.56789 22.8344 2.73353 22.8466 2.89926 22.8445L31.1185 22.8445L30.5031 23.1307C29.9017 23.4153 29.3545 23.8028 28.8861 24.2755L20.9727 32.1888C19.9305 33.1837 19.7554 34.7842 20.5578 35.981C21.4916 37.2562 23.2824 37.5331 24.5577 36.5993C24.6608 36.5238 24.7587 36.4416 24.8507 36.353L39.1606 22.0431C40.2789 20.9261 40.2799 19.114 39.1629 17.9957C39.1621 17.9949 39.1613 17.9941 39.1606 17.9934L24.8507 3.68352C23.7315 2.56744 21.9194 2.56994 20.8033 3.68916C20.7154 3.77725 20.6334 3.87098 20.5578 3.96972C19.7554 5.16647 19.9305 6.76695 20.9727 7.76184L28.8718 15.6895C29.2917 16.1099 29.7745 16.4623 30.3028 16.7341L31.1614 17.1205L3.05675 17.1205C1.59473 17.0662 0.312025 18.0875 0.0373627 19.5246C-0.215651 21.0848 0.843995 22.5547 2.40422 22.8078Z" fill="#1F1D1D"/>
</g>
</g>
</g>
<defs>
<clipPath id="clip0_25_185">
<rect width="40" height="40" fill="white" transform="translate(40 40) rotate(-180)"/>
</clipPath>
</defs>
</svg>
