<svg width="26" height="26" viewBox="0 0 26 26" fill="none" xmlns="http://www.w3.org/2000/svg">
<g id="." clip-path="url(#clip0_205_459)">
<g id="Layer 16">
<path id="Vector" d="M5.14662 21.3908L21.1359 5.40206L21.1393 5.39816C21.2259 5.3123 21.3285 5.24433 21.4413 5.19813C21.5542 5.15194 21.675 5.12842 21.7969 5.12891C21.9188 5.12941 22.0395 5.15392 22.1519 5.20104C22.2644 5.24816 22.3664 5.31696 22.4523 5.40353C22.5381 5.49009 22.6061 5.59272 22.6523 5.70555C22.6985 5.81839 22.722 5.93921 22.7215 6.06114C22.7205 6.30737 22.6217 6.54312 22.4469 6.71652L21.047 8.11642C22.7447 9.27914 24.206 10.7539 25.3532 12.4621C25.5405 12.7387 25.6406 13.0651 25.6406 13.3991C25.6406 13.7332 25.5405 14.0596 25.3532 14.3361C22.4249 18.6701 17.7829 21.2092 13.1408 21.1775C11.6371 21.1829 10.1435 20.9326 8.72377 20.4372L6.45766 22.7033C6.28306 22.8723 6.04915 22.966 5.80619 22.9644C5.56323 22.9627 5.33061 22.8658 5.15833 22.6945C4.98605 22.5232 4.88785 22.2911 4.88484 22.0481C4.88183 21.8052 4.97425 21.5708 5.14223 21.3952L5.14662 21.3908ZM13.1408 18.6574C14.0203 18.6571 14.8856 18.4364 15.6578 18.0154C16.43 17.5944 17.0844 16.9866 17.5612 16.2476C18.0379 15.5085 18.3219 14.6618 18.3871 13.7847C18.4522 12.9076 18.2965 12.0282 17.9342 11.2268L16.4718 12.6892C16.5896 13.2442 16.5669 13.82 16.4056 14.364C16.2444 14.908 15.9497 15.4032 15.5485 15.8044C15.1472 16.2057 14.6521 16.5003 14.1081 16.6615C13.564 16.8228 12.9883 16.8455 12.4332 16.7277L10.9708 18.1902C11.6524 18.4992 12.3924 18.6585 13.1408 18.6574Z" fill="#525252"/>
<path id="Vector_2" d="M0.928223 12.4598C3.85645 8.12334 8.49854 5.58428 13.1406 5.61602C14.6443 5.61057 16.1379 5.86088 17.5576 6.35625L15.3115 8.60234C14.3369 8.16127 13.2509 8.02771 12.1985 8.21947C11.146 8.41122 10.1769 8.91918 9.42047 9.67564C8.664 10.4321 8.15604 11.4012 7.96429 12.4536C7.77254 13.5061 7.90609 14.592 8.34717 15.5667L5.23486 18.679C3.53687 17.5165 2.07538 16.0417 0.928223 14.3333C0.740999 14.0568 0.640932 13.7305 0.640932 13.3965C0.640932 13.0626 0.740999 12.7363 0.928223 12.4598Z" fill="#525252"/>
<path id="Vector_3" d="M13.1411 9.99121C13.3789 9.99124 13.616 10.0161 13.8486 10.0654L9.81006 14.1035C9.70475 13.6074 9.7116 13.094 9.83011 12.6008C9.94862 12.1077 10.1758 11.6472 10.495 11.2531C10.8143 10.859 11.2175 10.5412 11.6753 10.3228C12.1331 10.1045 12.6339 9.99121 13.1411 9.99121Z" fill="#525252"/>
</g>
</g>
<defs>
<clipPath id="clip0_205_459">
<rect width="25" height="25" fill="white" transform="matrix(-1 0 0 1 25.6406 0.896484)"/>
</clipPath>
</defs>
</svg>
