<svg id="Layer_1" height="512" viewBox="0 0 512 512" width="512" xmlns="http://www.w3.org/2000/svg" data-name="Layer 1"><circle cx="256" cy="256" r="52.5"/><path fill="#1f1d1d" d="m256 6c-138.071 0-250 111.929-250 250s111.929 250 250 250 250-111.929 250-250-111.929-250-250-250zm154.458 313.54c-1.2 23.768-7.879 47.206-25.2 64.343-17.489 17.3-41.038 23.746-65.035 24.934h-128.445c-24-1.188-47.546-7.63-65.035-24.934-17.322-17.137-24-40.575-25.2-64.343v-127.08c1.2-23.768 7.879-47.206 25.2-64.344 17.489-17.3 41.038-23.746 65.035-24.933h128.444c24 1.187 47.546 7.63 65.035 24.933 17.322 17.138 24 40.576 25.2 64.344z"/><path fill="#1f1d1d" d="m318.6 132.138c-31.286-.858-93.906-.858-125.192 0-16.281.447-34.738 4.5-46.338 16.89-12.054 12.879-16.609 28.439-17.071 45.846-.812 30.552 0 122.252 0 122.252.529 17.405 5.017 32.967 17.071 45.846 11.6 12.394 30.057 16.443 46.338 16.89 31.286.858 93.906.858 125.192 0 16.281-.447 34.738-4.5 46.338-16.89 12.054-12.879 16.609-28.439 17.071-45.846v-122.252c-.462-17.407-5.017-32.967-17.071-45.846-11.604-12.394-30.061-16.443-46.338-16.89zm-62.6 205.237a81.375 81.375 0 1 1 81.375-81.375 81.375 81.375 0 0 1 -81.375 81.375zm81.721-145.953a16.275 16.275 0 1 1 16.279-16.275 16.275 16.275 0 0 1 -16.279 16.275z"/></svg>