<svg height="512" viewBox="0 0 152 152" width="512" xmlns="http://www.w3.org/2000/svg"><g id="Layer_2" data-name="Layer 2"><g id="Color"><path fill="#1f1d1d" id="_77.TikTok" d="m76 0a76 76 0 1 0 76 76 76 76 0 0 0 -76-76zm34.26 67.53c-6.78.75-12.59-1.93-18.4-5.35 0 .56.17 17.92-.12 26.2-.29 8.51-3.33 16-10 21.59-14.14 11.87-34.21 5.46-39-12.69-2.6-9.89-.34-18.8 7.42-25.85 4.37-4 9.76-5.78 15.54-6.52 1.24-.16 2.49-.23 3.83-.35v13.44c-1.7.42-3.42.79-5.11 1.29a23 23 0 0 0 -3.42 1.29 11 11 0 0 0 -4 17 12 12 0 0 0 11.47 4.84c4.37-.53 7.11-3.28 8.73-7.23a25 25 0 0 0 1.43-9.76c-.06-16.32-.06-32.63-.09-48.95a4.5 4.5 0 0 1 .07-.5h13.05c1.46 10.92 7 17.84 18.6 18.82z" data-name="77.TikTok"/></g></g></svg>