<?xml version="1.0" encoding="iso-8859-1"?>
<!-- Generator: Adobe Illustrator 18.0.0, SVG Export Plug-In . SVG Version: 6.00 Build 0)  -->
<!DOCTYPE svg PUBLIC "-//W3C//DTD SVG 1.1//EN" "http://www.w3.org/Graphics/SVG/1.1/DTD/svg11.dtd">
<svg version="1.1" id="Capa_1" xmlns="http://www.w3.org/2000/svg" xmlns:xlink="http://www.w3.org/1999/xlink" x="0px" y="0px"
	 viewBox="0 0 459.904 459.904" style="enable-background:new 0 0 459.904 459.904;" xml:space="preserve" fill="#525252">
<g>
	<g>
		<path d="M123.465,168.28h46.543v138.07c0,14.008,11.358,25.352,25.352,25.352h69.2c13.993,0,25.352-11.343,25.352-25.352V168.28
			h46.527c7.708,0,14.637-4.641,17.601-11.764c2.933-7.094,1.301-15.295-4.145-20.741L243.413,29.28
			c-7.437-7.422-19.485-7.422-26.938,0L110.011,135.775c-5.447,5.446-7.079,13.633-4.13,20.741
			C108.843,163.625,115.757,168.28,123.465,168.28z"/>
	</g>
	<g>
		<path d="M437.036,220.029c-12.617,0-22.852,10.237-22.852,22.867v95.615c0,28.643-23.317,51.944-51.961,51.944H97.679
			c-28.644,0-51.945-23.301-51.945-51.944v-95.615c0-12.63-10.251-22.867-22.867-22.867C10.236,220.029,0,230.266,0,242.897v95.615
			c0,53.859,43.818,97.679,97.679,97.679h264.544c53.861,0,97.681-43.819,97.681-97.679v-95.615
			C459.904,230.266,449.667,220.029,437.036,220.029z"/>
	</g>
</g>
<g>
</g>
<g>
</g>
<g>
</g>
<g>
</g>
<g>
</g>
<g>
</g>
<g>
</g>
<g>
</g>
<g>
</g>
<g>
</g>
<g>
</g>
<g>
</g>
<g>
</g>
<g>
</g>
<g>
</g>
</svg>
